<mxfile host="app.diagrams.net" modified="2022-02-23T03:38:13.899Z" agent="5.0 (Macintosh; Intel Mac OS X 10_15_7) AppleWebKit/605.1.15 (KHTML, like Gecko) Version/15.3 Safari/605.1.15" etag="hYD3Z892uDg1Khbp0Gp5" version="16.6.2" type="github">
  <diagram id="bjcdoH15z2-z07itKKdw" name="Page-1">
    <mxGraphModel dx="1171" dy="1801" grid="1" gridSize="10" guides="1" tooltips="1" connect="1" arrows="1" fold="1" page="1" pageScale="1" pageWidth="850" pageHeight="1100" math="0" shadow="0">
      <root>
        <mxCell id="0" />
        <mxCell id="1" parent="0" />
        <mxCell id="uiV10aV_zy-2RbMMguNy-1" value="" style="whiteSpace=wrap;html=1;aspect=fixed;" vertex="1" parent="1">
          <mxGeometry x="290" y="-390" width="80" height="80" as="geometry" />
        </mxCell>
        <mxCell id="uiV10aV_zy-2RbMMguNy-2" value="" style="triangle;whiteSpace=wrap;html=1;" vertex="1" parent="1">
          <mxGeometry x="600" y="-390" width="60" height="80" as="geometry" />
        </mxCell>
        <mxCell id="uiV10aV_zy-2RbMMguNy-3" value="" style="endArrow=classic;html=1;rounded=0;exitX=0;exitY=0.5;exitDx=0;exitDy=0;entryX=1.038;entryY=0.588;entryDx=0;entryDy=0;entryPerimeter=0;" edge="1" parent="1" source="uiV10aV_zy-2RbMMguNy-2" target="uiV10aV_zy-2RbMMguNy-1">
          <mxGeometry width="50" height="50" relative="1" as="geometry">
            <mxPoint x="590" y="-270" as="sourcePoint" />
            <mxPoint x="450" y="-360" as="targetPoint" />
            <Array as="points" />
          </mxGeometry>
        </mxCell>
      </root>
    </mxGraphModel>
  </diagram>
</mxfile>
